<svg width="32" height="36" viewBox="0 0 32 36" fill="none" xmlns="http://www.w3.org/2000/svg">
<path fill-rule="evenodd" clip-rule="evenodd" d="M16 0.5C16.5802 0.5 17.1366 0.730469 17.5468 1.1407C17.957 1.55094 18.1875 2.10734 18.1875 2.6875V28.0319L27.5763 18.6388C27.7796 18.4354 28.0211 18.274 28.2868 18.164C28.5526 18.0539 28.8374 17.9972 29.125 17.9972C29.4126 17.9972 29.6974 18.0539 29.9632 18.164C30.2289 18.274 30.4704 18.4354 30.6738 18.6388C30.8771 18.8421 31.0385 19.0836 31.1485 19.3493C31.2586 19.6151 31.3153 19.8999 31.3153 20.1875C31.3153 20.4751 31.2586 20.7599 31.1485 21.0257C31.0385 21.2914 30.8771 21.5329 30.6738 21.7362L17.5488 34.8613C17.3456 35.065 17.1042 35.2266 16.8384 35.3369C16.5726 35.4471 16.2877 35.5039 16 35.5039C15.7123 35.5039 15.4274 35.4471 15.1616 35.3369C14.8958 35.2266 14.6545 35.065 14.4513 34.8613L1.32625 21.7362C1.12287 21.5329 0.961533 21.2914 0.851462 21.0257C0.741391 20.7599 0.684738 20.4751 0.684738 20.1875C0.684738 19.8999 0.741391 19.6151 0.851462 19.3493C0.961533 19.0836 1.12287 18.8421 1.32625 18.6388C1.73701 18.228 2.29411 17.9972 2.875 17.9972C3.16263 17.9972 3.44745 18.0539 3.71318 18.164C3.97892 18.274 4.22037 18.4354 4.42375 18.6388L13.8125 28.0319V2.6875C13.8125 2.10734 14.043 1.55094 14.4532 1.1407C14.8634 0.730469 15.4198 0.5 16 0.5Z" fill="#6F6F6F"/>
</svg>
