<svg width="622" height="622" viewBox="0 0 622 622" fill="none" xmlns="http://www.w3.org/2000/svg">
<rect width="622" height="622" rx="100" fill="white"/>
<rect x="200" y="110" width="222" height="222" rx="111" fill="#1876FB"/>
<rect x="311" y="221" width="111" height="111" fill="#1876FB"/>
<path d="M149.134 414.344V485H160.27V454.568H186.382V445.256H160.27V423.656H190.99V414.344H149.134ZM203.509 414.344V485H214.645V414.344H203.509ZM233.134 414.344V485H243.694V451.688C243.694 447.848 243.534 443.944 243.214 439.976C242.894 436.008 242.574 432.2 242.254 428.552H242.734L250.126 443.336L273.55 485H284.974V414.344H274.414V447.272C274.414 451.112 274.574 455.08 274.894 459.176C275.214 463.272 275.534 467.144 275.854 470.792H275.374L267.982 455.816L244.558 414.344H233.134ZM303.634 414.344V485H322.546C327.858 485 332.562 484.232 336.658 482.696C340.818 481.096 344.338 478.792 347.218 475.784C350.098 472.776 352.274 469.064 353.746 464.648C355.282 460.232 356.05 455.144 356.05 449.384C356.05 437.608 353.138 428.84 347.314 423.08C341.554 417.256 333.106 414.344 321.97 414.344H303.634ZM321.202 475.88H314.77V423.368H321.202C328.818 423.368 334.61 425.48 338.578 429.704C342.546 433.928 344.53 440.488 344.53 449.384C344.53 458.472 342.578 465.16 338.674 469.448C334.77 473.736 328.946 475.88 321.202 475.88ZM370.759 414.344V485H413.575V475.592H381.895V452.744H407.815V443.336H381.895V423.656H412.519V414.344H370.759ZM466.913 485H479.489L462.209 455.048C466.689 453.64 470.273 451.304 472.961 448.04C475.649 444.776 476.993 440.36 476.993 434.792C476.993 430.952 476.353 427.752 475.073 425.192C473.793 422.568 472.001 420.456 469.697 418.856C467.393 417.256 464.673 416.104 461.537 415.4C458.465 414.696 455.105 414.344 451.457 414.344H428.321V485H439.457V456.488H450.881L466.913 485ZM439.457 447.56V423.272H450.113C455.297 423.272 459.233 424.136 461.921 425.864C464.609 427.528 465.953 430.504 465.953 434.792C465.953 439.08 464.609 442.28 461.921 444.392C459.233 446.504 455.297 447.56 450.113 447.56H439.457Z" fill="#E8E8E8"/>
</svg>
