<svg width="130" height="203" viewBox="0 0 130 203" fill="none" xmlns="http://www.w3.org/2000/svg">
<rect width="129.224" height="129.224" rx="64.6119" fill="#1876FB"/>
<rect x="64.6119" y="64.6119" width="64.6119" height="64.6119" fill="#1876FB"/>
<path d="M3.84942 166.504V193H8.02542V181.588H17.8174V178.096H8.02542V169.996H19.5454V166.504H3.84942ZM24.24 166.504V193H28.416V166.504H24.24ZM35.3494 166.504V193H39.3094V180.508C39.3094 179.068 39.2494 177.604 39.1294 176.116C39.0094 174.628 38.8894 173.2 38.7694 171.832H38.9494L41.7214 177.376L50.5054 193H54.7894V166.504H50.8294V178.852C50.8294 180.292 50.8894 181.78 51.0094 183.316C51.1294 184.852 51.2494 186.304 51.3694 187.672H51.1894L48.4174 182.056L39.6334 166.504H35.3494ZM61.7869 166.504V193H68.8789C70.8709 193 72.6349 192.712 74.1709 192.136C75.7309 191.536 77.0509 190.672 78.1309 189.544C79.2109 188.416 80.0269 187.024 80.5789 185.368C81.1549 183.712 81.4429 181.804 81.4429 179.644C81.4429 175.228 80.3509 171.94 78.1669 169.78C76.0069 167.596 72.8389 166.504 68.6629 166.504H61.7869ZM68.3749 189.58H65.9629V169.888H68.3749C71.2309 169.888 73.4029 170.68 74.8909 172.264C76.3789 173.848 77.1229 176.308 77.1229 179.644C77.1229 183.052 76.3909 185.56 74.9269 187.168C73.4629 188.776 71.2789 189.58 68.3749 189.58ZM86.9588 166.504V193H103.015V189.472H91.1348V180.904H100.855V177.376H91.1348V169.996H102.619V166.504H86.9588ZM123.017 193H127.733L121.253 181.768C122.933 181.24 124.277 180.364 125.285 179.14C126.293 177.916 126.797 176.26 126.797 174.172C126.797 172.732 126.557 171.532 126.077 170.572C125.597 169.588 124.925 168.796 124.061 168.196C123.197 167.596 122.177 167.164 121.001 166.9C119.849 166.636 118.589 166.504 117.221 166.504H108.545V193H112.721V182.308H117.005L123.017 193ZM112.721 178.96V169.852H116.717C118.661 169.852 120.137 170.176 121.145 170.824C122.153 171.448 122.657 172.564 122.657 174.172C122.657 175.78 122.153 176.98 121.145 177.772C120.137 178.564 118.661 178.96 116.717 178.96H112.721Z" fill="#E8E8E8"/>
</svg>
