<svg width="39" height="39" viewBox="0 0 39 39" fill="none" xmlns="http://www.w3.org/2000/svg">
<path fill-rule="evenodd" clip-rule="evenodd" d="M19.2891 0.639435C8.63188 0.639435 0 9.27131 0 19.9286C0 28.464 5.52151 35.6733 13.1889 38.2291C14.1534 38.3979 14.5151 37.8192 14.5151 37.3129C14.5151 36.8547 14.4909 35.3357 14.4909 33.7203C9.64456 34.6124 8.39077 32.5388 8.00498 31.4538C7.78798 30.8992 6.84764 29.1873 6.02785 28.7292C5.35273 28.3675 4.38827 27.4754 6.00374 27.4513C7.52275 27.4272 8.60777 28.8498 8.96944 29.4284C10.7055 32.3459 13.4783 31.5261 14.5874 31.0198C14.7562 29.766 15.2625 28.9221 15.8171 28.4399C11.5252 27.9576 7.04053 26.294 7.04053 18.9159C7.04053 16.8182 7.78798 15.0822 9.01766 13.7319C8.82477 13.2497 8.14965 11.2726 9.21055 8.62031C9.21055 8.62031 10.826 8.11397 14.5151 10.5974C16.0582 10.1634 17.6978 9.94643 19.3373 9.94643C20.9769 9.94643 22.6165 10.1634 24.1596 10.5974C27.8487 8.08986 29.4641 8.62031 29.4641 8.62031C30.525 11.2726 29.8499 13.2497 29.657 13.7319C30.8867 15.0822 31.6341 16.7941 31.6341 18.9159C31.6341 26.3181 27.1253 27.9576 22.8335 28.4399C23.5327 29.0427 24.1355 30.2 24.1355 32.0084C24.1355 34.5883 24.1114 36.6619 24.1114 37.3129C24.1114 37.8192 24.4731 38.422 25.4375 38.2291C29.2667 36.9363 32.5941 34.4752 34.9513 31.1924C37.3086 27.9095 38.5771 23.9701 38.5782 19.9286C38.5782 9.27131 29.9464 0.639435 19.2891 0.639435Z" fill="#3A3A3A"/>
</svg>
