<svg width="124" height="124" viewBox="0 0 124 124" fill="none" xmlns="http://www.w3.org/2000/svg">
<path d="M123.964 0H0.0363281C0.0162647 0 0 0.0162647 0 0.0363281V123.964C0 123.984 0.0162647 124 0.0363281 124H123.964C123.984 124 124 123.984 124 123.964V0.0363281C124 0.0162647 123.984 0 123.964 0Z" fill="#F7DF1E"/>
<path d="M78.4688 89.6094C80.8906 93.7266 84.2812 96.6328 89.8516 96.6328C94.6953 96.6328 97.8438 94.2109 97.8438 90.8203C97.8438 86.9453 94.6953 85.4922 89.3672 83.0703L86.4609 81.8594C77.9844 78.2266 72.4141 73.8672 72.4141 64.4219C72.4141 55.7031 78.9531 48.9219 89.3672 48.9219C96.875 48.9219 102.203 51.5859 105.836 58.3672L96.875 64.1797C94.9375 60.5469 92.7578 59.0938 89.3672 59.0938C85.9766 59.0938 83.7969 61.2734 83.7969 64.1797C83.7969 67.5703 85.9766 69.0234 91.0625 71.2031L93.9688 72.4141C103.898 76.7734 109.469 80.8906 109.469 90.8203C109.469 101.234 101.234 107.047 90.0938 107.047C79.1953 107.047 72.1719 101.961 68.7812 95.1797L78.4688 89.6094ZM37.2969 90.5781C39.2344 93.7266 40.6875 96.6328 44.8047 96.6328C48.6797 96.6328 51.1016 95.1797 51.1016 89.3672V49.1641H62.7266V88.8828C62.7266 100.992 55.7031 106.32 45.2891 106.32C35.8438 106.32 30.5156 101.477 27.8516 95.6641L37.2969 90.5781Z" fill="black"/>
</svg>
