<svg width="88" height="117" viewBox="0 0 88 117" fill="none" xmlns="http://www.w3.org/2000/svg">
<path d="M44 28.4999C55.6695 28.4999 66.8611 33.1356 75.1127 41.3872C83.3643 49.6388 88 60.8304 88 72.4999C88 84.1694 83.3643 95.361 75.1127 103.613C66.8611 111.864 55.6695 116.5 44 116.5C32.3305 116.5 21.1389 111.864 12.8873 103.613C4.6357 95.361 0 84.1694 0 72.4999C0 60.8304 4.6357 49.6388 12.8873 41.3872C21.1389 33.1356 32.3305 28.4999 44 28.4999V28.4999ZM44 47.7499L36.7235 62.4899L20.46 64.8549L32.23 76.3224L29.4525 92.5254L44 84.8749L58.5475 92.5199L55.77 76.3224L67.54 64.8494L51.2765 62.4844L44 47.7499ZM49.5 0.994385L77 0.999885V17.4999L69.5035 23.7589C63.2827 20.4951 56.4909 18.4615 49.5 17.7694V0.999885V0.994385ZM38.5 0.994385V17.7694C31.5114 18.4604 24.7215 20.4922 18.502 23.7534L11 17.4999V0.999885L38.5 0.994385V0.994385Z" fill="url(#paint0_linear_167_57)"/>
<defs>
<linearGradient id="paint0_linear_167_57" x1="88" y1="1" x2="-7.75772e-06" y2="116" gradientUnits="userSpaceOnUse">
<stop stop-color="#FFD43D" stop-opacity="0.1"/>
<stop offset="1" stop-color="#FFD43D" stop-opacity="0.91"/>
</linearGradient>
</defs>
</svg>
