<svg width="622" height="622" viewBox="0 0 622 622" fill="none" xmlns="http://www.w3.org/2000/svg">
<rect width="622" height="622" rx="100" fill="white"/>
<path d="M198.254 191.8H267.63V178.488H241.39V167.48H224.366V178.488H198.254V191.8ZM291.054 212.408H306.67V198.456H291.054V168.12H274.158V241.976H291.054V212.408ZM261.87 217.144C261.87 213.901 261.145 210.957 259.694 208.312C258.329 205.667 256.366 203.405 253.806 201.528C251.246 199.651 248.174 198.2 244.59 197.176C241.091 196.067 237.209 195.512 232.942 195.512C228.675 195.512 224.75 196.067 221.166 197.176C217.667 198.2 214.638 199.651 212.078 201.528C209.518 203.405 207.513 205.667 206.062 208.312C204.697 210.957 204.014 213.901 204.014 217.144C204.014 220.301 204.697 223.245 206.062 225.976C207.513 228.621 209.518 230.925 212.078 232.888C214.638 234.765 217.667 236.259 221.166 237.368C224.75 238.392 228.675 238.904 232.942 238.904C237.209 238.904 241.091 238.392 244.59 237.368C248.174 236.259 251.246 234.765 253.806 232.888C256.366 230.925 258.329 228.621 259.694 225.976C261.145 223.245 261.87 220.301 261.87 217.144ZM220.142 217.144C220.142 214.157 221.294 211.939 223.598 210.488C225.987 209.037 229.102 208.312 232.942 208.312C236.782 208.312 239.854 209.037 242.158 210.488C244.547 211.939 245.742 214.157 245.742 217.144C245.742 220.131 244.547 222.392 242.158 223.928C239.854 225.379 236.782 226.104 232.942 226.104C229.102 226.104 225.987 225.379 223.598 223.928C221.294 222.392 220.142 220.131 220.142 217.144ZM291.054 246.84H212.462V260.408H274.158V286.136H291.054V246.84ZM422.756 227.64V214.072H407.652C408.932 207.501 409.657 201.741 409.828 196.792C410.084 191.757 410.212 186.936 410.212 182.328V172.856H329.188V186.296H393.572C393.572 190.221 393.401 194.445 393.06 198.968C392.804 203.405 392.079 208.44 390.884 214.072H316.004V227.64H422.756ZM409.956 235.192H393.06V247.48H345.444V235.192H328.676V284.728H409.956V235.192ZM345.444 260.536H393.06V271.288H345.444V260.536ZM283.246 413.88H293.742V329.656H283.246V413.88ZM263.15 395.192L268.654 386.872C264.473 385.336 260.59 383.245 257.006 380.6C253.507 377.955 250.478 374.925 247.918 371.512C245.443 368.013 243.481 364.259 242.03 360.248C240.665 356.237 239.982 352.056 239.982 347.704V336.056H229.486V347.704C229.486 352.141 228.803 356.493 227.438 360.76C226.073 365.027 224.11 368.995 221.55 372.664C219.075 376.248 216.046 379.448 212.462 382.264C208.963 385.08 205.038 387.299 200.686 388.92L206.19 397.496C212.931 394.68 218.777 390.627 223.726 385.336C228.675 379.96 232.387 373.773 234.862 366.776C237.422 373.432 241.091 379.235 245.87 384.184C250.734 389.048 256.494 392.717 263.15 395.192ZM297.198 441.912V433.336H230.382V406.072H219.886V441.912H297.198ZM330.596 375.352H407.78V335.032H330.596V375.352ZM340.836 343.48H397.412V366.904H340.836V343.48ZM421.348 396.856V388.408H317.028V396.856H364.772V420.024H375.268V396.856H421.348ZM409.7 433.336H340.836V409.144H330.34V441.912H409.7V433.336Z" fill="#FFD43D"/>
</svg>
