<svg width="124" height="124" viewBox="0 0 124 124" fill="none" xmlns="http://www.w3.org/2000/svg">
<path d="M61.4691 0.0350342C30.0691 0.0350342 32.0296 13.7066 32.0296 13.7066L32.0645 27.8708H62.029V32.1233H20.1631C20.1631 32.1233 0.0701904 29.8354 0.0701904 61.645C0.0701904 93.4556 17.6078 92.3275 17.6078 92.3275H28.0741V77.5661C28.0741 77.5661 27.5099 59.9581 45.3317 59.9581H75.0512C75.0512 59.9581 91.7484 60.229 91.7484 43.756V16.5188C91.7484 16.5188 94.2844 0.0350342 61.4691 0.0350342ZM44.9467 9.56017C45.6548 9.55954 46.356 9.69909 47.0103 9.97085C47.6646 10.2426 48.2592 10.6413 48.7598 11.144C49.2605 11.6467 49.6576 12.2435 49.9282 12.9005C50.1989 13.5574 50.3379 14.2615 50.3373 14.9724C50.3379 15.6833 50.1989 16.3874 49.9282 17.0443C49.6576 17.7013 49.2605 18.2982 48.7598 18.8009C48.2592 19.3036 47.6646 19.7022 47.0103 19.974C46.356 20.2457 45.6548 20.3853 44.9467 20.3846C44.2386 20.3853 43.5374 20.2457 42.8831 19.974C42.2288 19.7022 41.6342 19.3036 41.1336 18.8009C40.6329 18.2982 40.2358 17.7013 39.9651 17.0443C39.6945 16.3874 39.5555 15.6833 39.5561 14.9724C39.5555 14.2615 39.6945 13.5574 39.9651 12.9005C40.2358 12.2435 40.6329 11.6467 41.1336 11.144C41.6342 10.6413 42.2288 10.2426 42.8831 9.97085C43.5374 9.69909 44.2386 9.55954 44.9467 9.56017Z" fill="url(#paint0_linear_25_137)"/>
<path d="M62.3609 123.575C93.7609 123.575 91.8003 109.903 91.8003 109.903L91.7655 95.7397H61.8005V91.4873H103.666C103.666 91.4873 123.759 93.7752 123.759 61.9645C123.759 30.1544 106.222 31.2825 106.222 31.2825H95.7554V46.0434C95.7554 46.0434 96.3196 63.6514 78.4977 63.6514H48.7783C48.7783 63.6514 32.0811 63.3806 32.0811 79.8541V107.092C32.0811 107.092 29.5456 123.575 62.3604 123.575H62.3609ZM78.8833 114.051C78.1752 114.052 77.4739 113.912 76.8196 113.64C76.1653 113.368 75.5708 112.97 75.0701 112.467C74.5694 111.964 74.1724 111.368 73.9017 110.711C73.631 110.054 73.4921 109.35 73.4927 108.639C73.492 107.928 73.6309 107.224 73.9016 106.567C74.1722 105.91 74.5693 105.313 75.07 104.81C75.5707 104.307 76.1652 103.908 76.8195 103.637C77.4739 103.365 78.1752 103.225 78.8833 103.226C79.5914 103.225 80.2926 103.365 80.9469 103.637C81.6012 103.908 82.1957 104.307 82.6964 104.81C83.1971 105.312 83.5942 105.909 83.8648 106.566C84.1355 107.223 84.2745 107.927 84.2739 108.638C84.2745 109.349 84.1355 110.053 83.8648 110.71C83.5942 111.367 83.1971 111.964 82.6964 112.467C82.1957 112.969 81.6012 113.368 80.9469 113.64C80.2926 113.911 79.5914 114.051 78.8833 114.05V114.051Z" fill="url(#paint1_linear_25_137)"/>
<defs>
<linearGradient id="paint0_linear_25_137" x1="11.9567" y1="11.1467" x2="73.4964" y2="71.8288" gradientUnits="userSpaceOnUse">
<stop stop-color="#387EB8"/>
<stop offset="1" stop-color="#366994"/>
</linearGradient>
<linearGradient id="paint1_linear_25_137" x1="49.5805" y1="50.2715" x2="115.655" y2="112.484" gradientUnits="userSpaceOnUse">
<stop stop-color="#FFE052"/>
<stop offset="1" stop-color="#FFC331"/>
</linearGradient>
</defs>
</svg>
