<svg width="122" height="122" viewBox="0 0 122 122" fill="none" xmlns="http://www.w3.org/2000/svg">
<path d="M37.3148 91.7146L29.952 84.1372C27.9266 82.3263 27.2117 79.3716 27.9027 76.679C28.6176 74.5583 29.5707 71.7942 30.9289 68.6251H5.71875C3.66477 68.6251 1.76662 67.529 0.749635 65.7419C0.249966 64.8656 -0.00861262 63.8725 0.000218871 62.8638C0.00905036 61.8551 0.284976 60.8668 0.799912 59.9993L13.3032 38.9114C16.3914 33.6931 22.0005 30.2857 28.0695 30.2857H47.6563C48.2281 29.547 48.8 28.6653 49.3719 27.8075C68.8871 -0.969702 97.9574 -1.93998 115.304 1.25704C118.092 1.76672 120.237 3.91506 120.737 6.68628C123.93 24.0427 122.977 53.113 94.1926 72.6282C93.3586 73.2001 92.2387 73.772 91.5 74.1294V93.9306C91.5 100.007 88.307 105.606 83.0887 108.704L62.0008 121.19C60.2375 122.238 58.0453 122.262 56.2582 121.261C54.4711 120.237 53.375 118.331 53.375 116.281V90.7376C50.0152 91.8814 47.0844 92.8583 44.8684 93.5732C42.1996 94.431 39.2926 93.6923 37.3148 91.7146ZM91.5 39.8169C96.766 39.8169 101.031 35.7661 101.031 30.2857C101.031 25.2341 96.766 20.7544 91.5 20.7544C86.234 20.7544 81.9688 25.2341 81.9688 30.2857C81.9688 35.7661 86.234 39.8169 91.5 39.8169Z" fill="url(#paint0_linear_166_55)"/>
<defs>
<linearGradient id="paint0_linear_166_55" x1="1.94932e-06" y1="122" x2="122" y2="-1.98477e-06" gradientUnits="userSpaceOnUse">
<stop stop-color="#6F6F6F"/>
<stop offset="1" stop-color="#3C3C3C"/>
</linearGradient>
</defs>
</svg>
