<svg width="60" height="60" viewBox="0 0 60 60" fill="none" xmlns="http://www.w3.org/2000/svg">
<path d="M5 41.25C5 40.587 5.26339 39.9511 5.73223 39.4822C6.20107 39.0134 6.83696 38.75 7.5 38.75H15V30L30 20L45 30V38.75H52.5C53.163 38.75 53.7989 39.0134 54.2678 39.4822C54.7366 39.9511 55 40.587 55 41.25V52.5C55 53.163 54.7366 53.7989 54.2678 54.2678C53.7989 54.7366 53.163 55 52.5 55H5V41.25Z" stroke="#29E89B" stroke-width="2.33333" stroke-linejoin="round"/>
<path d="M30 7.5V20" stroke="#29E89B" stroke-width="2.33333" stroke-linecap="round"/>
<path d="M22.5 55H37.5M45 15V7.50004C45 7.50004 43.125 11.25 37.5 7.50004C31.875 3.75004 30 7.50004 30 7.50004V15C30 15 31.875 11.25 37.5 15C43.125 18.75 45 15 45 15ZM35 55V38.75H25V55H35Z" stroke="#29E89B" stroke-width="2.33333" stroke-linecap="round" stroke-linejoin="round"/>
</svg>
