<svg width="428" height="926" viewBox="0 0 428 926" fill="none" xmlns="http://www.w3.org/2000/svg">
<g clip-path="url(#clip0_10_365)">
<rect width="428" height="926" fill="white"/>
<g filter="url(#filter0_f_10_365)">
<circle cx="69" cy="667" r="92" fill="#F5F5F5"/>
<circle cx="398" cy="46" r="92" fill="#FAFAFA"/>
<circle cx="68" r="92" fill="#FFEDED"/>
<circle cx="42" cy="371" r="92" fill="#FAFAFA"/>
<circle cx="368" cy="501" r="92" fill="#EDECFF"/>
<circle cx="368" cy="880" r="92" fill="#FAFAFA"/>
</g>
<path d="M84.72 151.888V146.704H78.864V137.872H72.528V159.952H78.864V151.888H84.72ZM66.864 139.552H45.984V144.592H59.808C59.616 145.872 59.152 147.104 58.416 148.288C57.712 149.44 56.704 150.512 55.392 151.504C54.112 152.496 52.512 153.376 50.592 154.144C48.672 154.912 46.416 155.536 43.824 156.016L46.08 161.152C52.736 159.808 57.856 157.36 61.44 153.808C65.056 150.224 66.864 145.472 66.864 139.552ZM80.112 176.704H56.016V173.92H78.864V161.68H49.68V166.672H72.624V169.216H49.728V181.696H80.112V176.704ZM118.556 160.912H124.94V137.92H118.556V160.912ZM115.532 158.896L114.908 154.096C113.564 154.32 112.236 154.512 110.924 154.672C109.612 154.8 108.236 154.896 106.796 154.96C105.356 155.024 103.804 155.072 102.14 155.104C100.508 155.136 98.6683 155.152 96.6203 155.152V152.032H110.972V139.936H90.2843V144.736H104.732V147.616H90.3803V160H94.2203C96.6843 160 98.8923 160 100.844 160C102.796 159.968 104.604 159.92 106.268 159.856C107.932 159.76 109.5 159.648 110.972 159.52C112.476 159.36 113.996 159.152 115.532 158.896ZM126.044 181.792V177.04H101.996V174.256H124.94V162.544H95.4683V167.296H118.46V169.84H95.5163V181.792H126.044ZM170.297 182.08V137.872H164.297V182.08H170.297ZM161.177 138.688H155.321V152.944H150.953V158.128H155.321V180.064H161.177V138.688ZM139.721 166.624V159.184H149.177V142.24H133.529V147.28H143.033V154.192H133.577V171.808H136.697C139.449 171.808 142.105 171.744 144.665 171.616C147.257 171.488 149.977 171.168 152.825 170.656L152.297 165.568C150.057 165.92 147.929 166.176 145.913 166.336C143.897 166.464 141.833 166.56 139.721 166.624ZM213.157 182.224V137.872H206.821V182.224H213.157ZM189.397 140.992C187.733 140.992 186.181 141.36 184.741 142.096C183.333 142.832 182.117 143.888 181.093 145.264C180.069 146.608 179.253 148.256 178.645 150.208C178.069 152.128 177.781 154.304 177.781 156.736C177.781 159.168 178.069 161.36 178.645 163.312C179.253 165.264 180.069 166.928 181.093 168.304C182.117 169.68 183.333 170.736 184.741 171.472C186.181 172.208 187.733 172.576 189.397 172.576C191.061 172.576 192.597 172.208 194.005 171.472C195.445 170.736 196.677 169.68 197.701 168.304C198.725 166.928 199.525 165.264 200.101 163.312C200.709 161.36 201.013 159.168 201.013 156.736C201.013 154.304 200.709 152.128 200.101 150.208C199.525 148.256 198.725 146.608 197.701 145.264C196.677 143.888 195.445 142.832 194.005 142.096C192.597 141.36 191.061 140.992 189.397 140.992ZM189.397 146.704C191.029 146.704 192.357 147.552 193.381 149.248C194.405 150.944 194.917 153.44 194.917 156.736C194.917 160.032 194.405 162.544 193.381 164.272C192.357 165.968 191.029 166.816 189.397 166.816C187.765 166.816 186.437 165.968 185.413 164.272C184.389 162.544 183.877 160.032 183.877 156.736C183.877 153.44 184.389 150.944 185.413 149.248C186.437 147.552 187.765 146.704 189.397 146.704ZM271.5 165.712V160.672H254.652V157.12C256.636 156.96 258.412 156.64 259.98 156.16C261.58 155.648 262.94 155.008 264.06 154.24C265.18 153.472 266.044 152.576 266.652 151.552C267.26 150.528 267.564 149.392 267.564 148.144C267.564 146.736 267.18 145.472 266.412 144.352C265.644 143.232 264.556 142.272 263.148 141.472C261.772 140.672 260.092 140.064 258.108 139.648C256.124 139.232 253.932 139.024 251.532 139.024C249.132 139.024 246.94 139.232 244.956 139.648C243.004 140.064 241.324 140.672 239.916 141.472C238.54 142.272 237.468 143.232 236.7 144.352C235.932 145.472 235.548 146.736 235.548 148.144C235.548 149.392 235.852 150.528 236.46 151.552C237.068 152.576 237.916 153.472 239.004 154.24C240.124 155.008 241.468 155.632 243.036 156.112C244.604 156.592 246.364 156.928 248.316 157.12V160.672H231.564V165.712H271.5ZM242.076 148.144C242.076 146.8 242.892 145.776 244.524 145.072C246.188 144.368 248.524 144.016 251.532 144.016C254.54 144.016 256.876 144.368 258.54 145.072C260.204 145.776 261.036 146.8 261.036 148.144C261.036 149.52 260.204 150.544 258.54 151.216C256.876 151.888 254.54 152.224 251.532 152.224C248.524 152.224 246.188 151.888 244.524 151.216C242.892 150.544 242.076 149.52 242.076 148.144ZM267.036 176.32H242.748V168.544H236.412V181.36H267.036V176.32ZM315.752 177.136V171.952H298.856V162.736H311.48V157.648H286.76V146.032H311.144V140.944H280.376V162.736H292.52V171.952H275.72V177.136H315.752ZM357.893 182.128V137.872H351.893V182.128H357.893ZM348.725 138.88H342.821V149.584H338.549C338.677 148.56 338.773 147.52 338.837 146.464C338.901 145.376 338.933 144.272 338.933 143.152H321.749V148.192H332.645C332.453 150.368 332.053 152.4 331.445 154.288C330.837 156.176 329.989 157.952 328.901 159.616C327.845 161.28 326.517 162.848 324.917 164.32C323.317 165.792 321.429 167.2 319.253 168.544L322.853 172.96C326.981 170.528 330.197 167.776 332.501 164.704C334.837 161.632 336.501 158.272 337.493 154.624H342.821V160.624H336.677V165.712H342.821V180.208H348.725V138.88ZM81.984 242.08V197.872H75.984V242.08H81.984ZM72.96 198.64H67.056V212.992H61.44V218.128H67.056V240.112H72.96V198.64ZM58.08 209.632V207.472H64.512V202.336H44.832V207.472H51.936V209.632C51.936 211.552 51.776 213.456 51.456 215.344C51.168 217.232 50.672 219.04 49.968 220.768C49.296 222.464 48.4 224.048 47.28 225.52C46.16 226.96 44.8 228.192 43.2 229.216L46.944 233.872C48.96 232.624 50.624 230.976 51.936 228.928C53.248 226.848 54.288 224.544 55.056 222.016C55.792 224.352 56.784 226.448 58.032 228.304C59.28 230.16 60.912 231.664 62.928 232.816L66.624 228.208C65.024 227.28 63.68 226.144 62.592 224.8C61.504 223.424 60.624 221.92 59.952 220.288C59.28 218.656 58.8 216.944 58.512 215.152C58.224 213.328 58.08 211.488 58.08 209.632ZM123.02 213.808H128.876V208.576H123.02V197.92H116.684V224.56H123.02V213.808ZM111.404 223.024L114.62 218.128C112.892 217.552 111.388 216.816 110.108 215.92C108.86 215.024 107.82 214.032 106.988 212.944C106.188 211.824 105.58 210.64 105.164 209.392C104.748 208.112 104.524 206.832 104.492 205.552H113.132V200.512H89.2283V205.552H98.0123C97.9803 206.928 97.7563 208.288 97.3403 209.632C96.9243 210.976 96.2843 212.24 95.4203 213.424C94.5883 214.608 93.5163 215.68 92.2043 216.64C90.8923 217.568 89.3403 218.32 87.5483 218.896L90.8603 223.84C93.4523 223.008 95.5963 221.776 97.2923 220.144C99.0203 218.512 100.38 216.624 101.372 214.48C102.332 216.432 103.644 218.16 105.308 219.664C106.972 221.136 109.004 222.256 111.404 223.024ZM123.02 226.528H93.5003V231.568H116.684V242.176H123.02V226.528ZM181.172 242.08V197.872H175.172V242.08H181.172ZM172.148 198.64H166.244V214.624H161.204V219.76H166.244V240.112H172.148V198.64ZM156.98 211.312V210.4H163.748V205.312H156.98V199.36H150.98V205.312H144.068V210.4H150.98V211.312C150.98 213.008 150.82 214.72 150.5 216.448C150.212 218.176 149.732 219.824 149.06 221.392C148.388 222.928 147.508 224.368 146.42 225.712C145.332 227.024 144.004 228.144 142.436 229.072L145.988 233.824C148.004 232.672 149.668 231.152 150.98 229.264C152.292 227.376 153.316 225.28 154.052 222.976C154.852 225.088 155.892 226.992 157.172 228.688C158.484 230.384 160.116 231.744 162.068 232.768L165.476 228.064C163.908 227.232 162.58 226.208 161.492 224.992C160.436 223.776 159.572 222.432 158.9 220.96C158.228 219.488 157.732 217.936 157.412 216.304C157.124 214.64 156.98 212.976 156.98 211.312ZM187.504 206.752H213.376V201.808H203.584V197.584H197.248V201.808H187.504V206.752ZM224.368 224.608V197.92H218.032V210.832H212.512V215.968H218.032V224.608H224.368ZM211.072 216.16C211.072 214.976 210.8 213.904 210.256 212.944C209.744 211.952 209.024 211.12 208.096 210.448C207.168 209.744 206.048 209.2 204.736 208.816C203.424 208.432 202 208.24 200.464 208.24C198.928 208.24 197.504 208.432 196.192 208.816C194.88 209.2 193.76 209.744 192.832 210.448C191.904 211.12 191.168 211.952 190.624 212.944C190.112 213.904 189.856 214.976 189.856 216.16C189.856 217.344 190.112 218.432 190.624 219.424C191.168 220.384 191.904 221.216 192.832 221.92C193.76 222.624 194.88 223.168 196.192 223.552C197.504 223.936 198.928 224.128 200.464 224.128C202 224.128 203.424 223.936 204.736 223.552C206.048 223.168 207.168 222.624 208.096 221.92C209.024 221.216 209.744 220.384 210.256 219.424C210.8 218.432 211.072 217.344 211.072 216.16ZM195.904 216.16C195.904 215.104 196.32 214.304 197.152 213.76C198.016 213.184 199.12 212.896 200.464 212.896C201.808 212.896 202.896 213.184 203.728 213.76C204.592 214.304 205.024 215.104 205.024 216.16C205.024 217.248 204.592 218.08 203.728 218.656C202.896 219.2 201.808 219.472 200.464 219.472C199.12 219.472 198.016 219.2 197.152 218.656C196.32 218.08 195.904 217.248 195.904 216.16ZM224.368 226.48H194.944V241.6H224.368V226.48ZM218.176 236.656H201.184V231.472H218.176V236.656Z" fill="#292929"/>
<path d="M63.168 103.432V101.8H59.976V95.248H58.008V111.088H59.976V103.432H63.168ZM54.912 102.064C54.912 101.28 54.768 100.568 54.48 99.928C54.208 99.272 53.816 98.712 53.304 98.248C52.808 97.768 52.216 97.4 51.528 97.144C50.84 96.888 50.096 96.76 49.296 96.76C48.496 96.76 47.752 96.888 47.064 97.144C46.376 97.4 45.776 97.768 45.264 98.248C44.768 98.712 44.376 99.272 44.088 99.928C43.816 100.568 43.68 101.28 43.68 102.064C43.68 102.848 43.816 103.568 44.088 104.224C44.376 104.864 44.768 105.424 45.264 105.904C45.776 106.368 46.376 106.728 47.064 106.984C47.752 107.24 48.496 107.368 49.296 107.368C50.096 107.368 50.84 107.24 51.528 106.984C52.216 106.728 52.808 106.368 53.304 105.904C53.816 105.424 54.208 104.864 54.48 104.224C54.768 103.568 54.912 102.848 54.912 102.064ZM45.6 102.064C45.6 101.536 45.688 101.056 45.864 100.624C46.056 100.176 46.32 99.792 46.656 99.472C46.992 99.152 47.384 98.904 47.832 98.728C48.28 98.552 48.768 98.464 49.296 98.464C49.824 98.464 50.312 98.552 50.76 98.728C51.208 98.904 51.6 99.152 51.936 99.472C52.272 99.792 52.528 100.176 52.704 100.624C52.896 101.056 52.992 101.536 52.992 102.064C52.992 102.592 52.896 103.08 52.704 103.528C52.528 103.96 52.272 104.336 51.936 104.656C51.6 104.976 51.208 105.224 50.76 105.4C50.312 105.576 49.824 105.664 49.296 105.664C48.768 105.664 48.28 105.576 47.832 105.4C47.384 105.224 46.992 104.976 46.656 104.656C46.32 104.336 46.056 103.96 45.864 103.528C45.688 103.08 45.6 102.592 45.6 102.064ZM60.936 114.688H48.552V109.48H46.584V116.296H60.936V114.688ZM75.0461 103.12H81.0941V108.472H83.0861V95.248H81.0941V97.792H75.0461V99.328H81.0941V101.584H75.0461V103.12ZM77.9021 106.192L77.6621 104.584C76.9421 104.728 76.2301 104.848 75.5261 104.944C74.8381 105.04 74.1261 105.12 73.3901 105.184C72.6701 105.248 71.9181 105.296 71.1341 105.328C70.3501 105.344 69.5021 105.352 68.5901 105.352V96.544H66.6461V106.984H68.2781C69.2381 106.984 70.1341 106.976 70.9661 106.96C71.8141 106.928 72.6221 106.888 73.3901 106.84C74.1581 106.776 74.9101 106.696 75.6461 106.6C76.3821 106.488 77.1341 106.352 77.9021 106.192ZM75.9821 108.664C74.8781 108.664 73.8781 108.752 72.9821 108.928C72.1021 109.104 71.3501 109.368 70.7261 109.72C70.1181 110.072 69.6461 110.496 69.3101 110.992C68.9741 111.488 68.8061 112.064 68.8061 112.72C68.8061 113.36 68.9741 113.936 69.3101 114.448C69.6461 114.944 70.1181 115.36 70.7261 115.696C71.3501 116.048 72.1021 116.312 72.9821 116.488C73.8781 116.68 74.8781 116.776 75.9821 116.776C77.0861 116.776 78.0781 116.68 78.9581 116.488C79.8541 116.312 80.6061 116.048 81.2141 115.696C81.8381 115.36 82.3181 114.944 82.6541 114.448C82.9901 113.936 83.1581 113.36 83.1581 112.72C83.1581 112.064 82.9901 111.488 82.6541 110.992C82.3181 110.496 81.8381 110.072 81.2141 109.72C80.6061 109.368 79.8541 109.104 78.9581 108.928C78.0781 108.752 77.0861 108.664 75.9821 108.664ZM75.9821 115.216C74.3341 115.216 73.0541 115 72.1421 114.568C71.2301 114.12 70.7741 113.504 70.7741 112.72C70.7741 111.904 71.2301 111.28 72.1421 110.848C73.0541 110.416 74.3341 110.2 75.9821 110.2C77.6301 110.2 78.9101 110.416 79.8221 110.848C80.7341 111.28 81.1901 111.904 81.1901 112.72C81.1901 113.504 80.7341 114.12 79.8221 114.568C78.9101 115 77.6301 115.216 75.9821 115.216ZM104.012 105.76H107.54V104.104H104.012V95.272H102.044V116.776H104.012V105.76ZM100.004 98.704H94.7003V95.512H92.7323V98.704H87.3083V100.288H100.004V98.704ZM93.7403 102.064C92.9883 102.064 92.2923 102.192 91.6523 102.448C91.0123 102.688 90.4603 103.032 89.9963 103.48C89.5323 103.912 89.1723 104.432 88.9163 105.04C88.6603 105.648 88.5323 106.312 88.5323 107.032C88.5323 107.768 88.6603 108.44 88.9163 109.048C89.1723 109.656 89.5323 110.176 89.9963 110.608C90.4603 111.04 91.0123 111.376 91.6523 111.616C92.2923 111.856 92.9883 111.976 93.7403 111.976C94.5083 111.976 95.2123 111.856 95.8523 111.616C96.4923 111.376 97.0443 111.04 97.5083 110.608C97.9883 110.176 98.3563 109.656 98.6123 109.048C98.8683 108.44 98.9963 107.768 98.9963 107.032C98.9963 106.312 98.8683 105.648 98.6123 105.04C98.3563 104.432 97.9883 103.912 97.5083 103.48C97.0443 103.032 96.4923 102.688 95.8523 102.448C95.2123 102.192 94.5083 102.064 93.7403 102.064ZM93.7403 110.344C93.2603 110.344 92.8123 110.264 92.3963 110.104C91.9803 109.928 91.6203 109.696 91.3163 109.408C91.0283 109.12 90.7963 108.776 90.6203 108.376C90.4603 107.96 90.3803 107.512 90.3803 107.032C90.3803 106.552 90.4603 106.112 90.6203 105.712C90.7963 105.296 91.0283 104.944 91.3163 104.656C91.6203 104.352 91.9803 104.12 92.3963 103.96C92.8123 103.784 93.2603 103.696 93.7403 103.696C94.2363 103.696 94.6923 103.784 95.1083 103.96C95.5243 104.12 95.8763 104.352 96.1643 104.656C96.4683 104.944 96.7003 105.296 96.8603 105.712C97.0363 106.112 97.1243 106.552 97.1243 107.032C97.1243 107.512 97.0363 107.96 96.8603 108.376C96.7003 108.776 96.4683 109.12 96.1643 109.408C95.8763 109.696 95.5243 109.928 95.1083 110.104C94.6923 110.264 94.2363 110.344 93.7403 110.344ZM127.794 116.776V95.248H125.922V116.776H127.794ZM123.402 95.728H121.554V102.976H118.002V104.608H121.554V115.72H123.402V95.728ZM115.89 101.32V97.288H113.994V101.392C113.994 102.32 113.882 103.248 113.658 104.176C113.45 105.088 113.138 105.96 112.722 106.792C112.322 107.608 111.826 108.352 111.234 109.024C110.658 109.696 110.002 110.248 109.266 110.68L110.49 112.168C111.562 111.496 112.474 110.592 113.226 109.456C113.994 108.304 114.57 107 114.954 105.544C115.338 106.856 115.882 108.056 116.586 109.144C117.306 110.216 118.178 111.064 119.202 111.688L120.33 110.152C119.626 109.72 118.994 109.184 118.434 108.544C117.89 107.888 117.426 107.168 117.042 106.384C116.674 105.6 116.386 104.776 116.178 103.912C115.986 103.048 115.89 102.184 115.89 101.32ZM151.121 114.016V112.384H146.297V106.552C147.209 106.088 147.905 105.48 148.385 104.728C148.881 103.976 149.129 103.112 149.129 102.136C149.129 101.304 148.937 100.552 148.553 99.88C148.169 99.192 147.625 98.608 146.921 98.128C146.233 97.648 145.409 97.28 144.449 97.024C143.505 96.752 142.457 96.616 141.305 96.616C140.169 96.616 139.121 96.752 138.161 97.024C137.201 97.28 136.369 97.648 135.665 98.128C134.977 98.608 134.441 99.192 134.057 99.88C133.673 100.552 133.48 101.304 133.48 102.136C133.48 103.112 133.729 103.984 134.225 104.752C134.737 105.504 135.449 106.112 136.361 106.576V112.384H131.561V114.016H151.121ZM141.305 98.152C142.169 98.152 142.961 98.248 143.681 98.44C144.417 98.632 145.049 98.904 145.577 99.256C146.105 99.592 146.513 100.008 146.801 100.504C147.105 100.984 147.257 101.528 147.257 102.136C147.257 102.728 147.105 103.272 146.801 103.768C146.513 104.264 146.105 104.688 145.577 105.04C145.049 105.376 144.417 105.64 143.681 105.832C142.961 106.024 142.169 106.12 141.305 106.12C140.441 106.12 139.641 106.024 138.905 105.832C138.185 105.64 137.561 105.376 137.033 105.04C136.521 104.688 136.113 104.264 135.809 103.768C135.521 103.272 135.377 102.728 135.377 102.136C135.377 101.528 135.521 100.984 135.809 100.504C136.113 100.008 136.521 99.592 137.033 99.256C137.561 98.904 138.185 98.632 138.905 98.44C139.641 98.248 140.441 98.152 141.305 98.152ZM144.329 112.384H138.329V107.32C138.793 107.432 139.273 107.52 139.769 107.584C140.265 107.632 140.777 107.656 141.305 107.656C142.249 107.656 143.257 107.544 144.329 107.32V112.384ZM157.023 97.024H154.791L155.151 110.704H156.663L157.023 97.024ZM154.815 115.312H156.999V113.056H154.815V115.312Z" fill="#787878"/>
<g filter="url(#filter1_d_10_365)">
<rect x="43" y="813" width="343" height="62" rx="20" fill="#1876FB"/>
</g>
<path d="M195.927 843.686V834.776H193.533V843.686H195.927ZM186.909 835.46C186.261 835.46 185.661 835.556 185.109 835.748C184.569 835.94 184.095 836.21 183.687 836.558C183.279 836.906 182.961 837.32 182.733 837.8C182.505 838.28 182.391 838.802 182.391 839.366C182.391 839.942 182.505 840.47 182.733 840.95C182.961 841.43 183.279 841.844 183.687 842.192C184.095 842.54 184.569 842.81 185.109 843.002C185.661 843.194 186.261 843.29 186.909 843.29C187.557 843.29 188.151 843.194 188.691 843.002C189.243 842.81 189.717 842.54 190.113 842.192C190.521 841.844 190.839 841.43 191.067 840.95C191.295 840.47 191.409 839.942 191.409 839.366C191.409 838.802 191.295 838.28 191.067 837.8C190.839 837.32 190.521 836.906 190.113 836.558C189.717 836.21 189.243 835.94 188.691 835.748C188.151 835.556 187.557 835.46 186.909 835.46ZM186.909 837.422C187.557 837.422 188.079 837.596 188.475 837.944C188.883 838.28 189.087 838.754 189.087 839.366C189.087 839.99 188.883 840.476 188.475 840.824C188.079 841.16 187.557 841.328 186.909 841.328C186.261 841.328 185.733 841.16 185.325 840.824C184.917 840.476 184.713 839.99 184.713 839.366C184.713 838.754 184.917 838.28 185.325 837.944C185.733 837.596 186.261 837.422 186.909 837.422ZM187.269 845.954V844.406H184.911V851.156H195.927V844.406H193.569V845.954H187.269ZM193.569 849.284H187.269V847.772H193.569V849.284ZM213.961 840.536V838.592H211.765V834.776H209.389V844.622H211.765V840.536H213.961ZM207.463 844.136L208.597 842.3C207.949 842.108 207.385 841.856 206.905 841.544C206.437 841.22 206.047 840.86 205.735 840.464C205.435 840.068 205.207 839.642 205.051 839.186C204.907 838.718 204.829 838.25 204.817 837.782H208.057V835.874H199.093V837.782H202.387C202.375 838.298 202.291 838.814 202.135 839.33C201.979 839.834 201.739 840.314 201.415 840.77C201.103 841.214 200.701 841.616 200.209 841.976C199.729 842.336 199.153 842.63 198.481 842.858L199.669 844.712C200.641 844.4 201.457 843.932 202.117 843.308C202.777 842.684 203.293 841.958 203.665 841.13C204.025 841.814 204.517 842.42 205.141 842.948C205.777 843.464 206.551 843.86 207.463 844.136ZM206.347 844.91C205.483 844.91 204.703 844.982 204.007 845.126C203.311 845.27 202.717 845.486 202.225 845.774C201.745 846.05 201.373 846.392 201.109 846.8C200.857 847.196 200.731 847.646 200.731 848.15C200.731 848.654 200.857 849.104 201.109 849.5C201.373 849.896 201.745 850.232 202.225 850.508C202.717 850.784 203.311 850.994 204.007 851.138C204.703 851.282 205.483 851.354 206.347 851.354C207.211 851.354 207.985 851.282 208.669 851.138C209.365 850.994 209.953 850.784 210.433 850.508C210.925 850.232 211.297 849.896 211.549 849.5C211.813 849.104 211.945 848.654 211.945 848.15C211.945 847.646 211.813 847.196 211.549 846.8C211.297 846.392 210.925 846.05 210.433 845.774C209.953 845.486 209.365 845.27 208.669 845.126C207.985 844.982 207.211 844.91 206.347 844.91ZM206.347 849.536C204.175 849.536 203.089 849.074 203.089 848.15C203.089 847.214 204.175 846.746 206.347 846.746C207.403 846.746 208.207 846.86 208.759 847.088C209.311 847.316 209.587 847.67 209.587 848.15C209.587 848.618 209.311 848.966 208.759 849.194C208.207 849.422 207.403 849.536 206.347 849.536ZM228.288 843.218H230.664V841.256H228.288V834.776H225.912V851.354H228.288V843.218ZM224.832 837.224H221.232V835.064H218.856V837.224H215.184V839.114H224.832V837.224ZM220.062 840.05C219.462 840.05 218.904 840.146 218.388 840.338C217.872 840.53 217.422 840.806 217.038 841.166C216.666 841.514 216.372 841.928 216.156 842.408C215.952 842.888 215.85 843.416 215.85 843.992C215.85 844.58 215.952 845.12 216.156 845.612C216.372 846.092 216.666 846.512 217.038 846.872C217.422 847.22 217.872 847.49 218.388 847.682C218.904 847.874 219.462 847.97 220.062 847.97C220.662 847.97 221.214 847.874 221.718 847.682C222.234 847.49 222.678 847.22 223.05 846.872C223.422 846.512 223.71 846.092 223.914 845.612C224.13 845.12 224.238 844.58 224.238 843.992C224.238 843.416 224.13 842.888 223.914 842.408C223.71 841.928 223.422 841.514 223.05 841.166C222.678 840.806 222.234 840.53 221.718 840.338C221.214 840.146 220.662 840.05 220.062 840.05ZM220.062 846.026C219.486 846.026 219.018 845.852 218.658 845.504C218.298 845.156 218.118 844.658 218.118 844.01C218.118 843.362 218.298 842.864 218.658 842.516C219.018 842.156 219.486 841.976 220.062 841.976C220.638 841.976 221.1 842.156 221.448 842.516C221.808 842.876 221.988 843.368 221.988 843.992C221.988 844.64 221.808 845.144 221.448 845.504C221.1 845.852 220.638 846.026 220.062 846.026ZM245.639 851.336V834.758H243.245V851.336H245.639ZM240.707 836.486H232.751V838.376H238.277C238.193 839.288 238.007 840.14 237.719 840.932C237.443 841.724 237.047 842.462 236.531 843.146C236.015 843.83 235.373 844.466 234.605 845.054C233.837 845.63 232.925 846.17 231.869 846.674L233.111 848.546C234.587 847.838 235.811 847.052 236.783 846.188C237.755 845.312 238.529 844.37 239.105 843.362C239.693 842.342 240.107 841.256 240.347 840.104C240.587 838.952 240.707 837.746 240.707 836.486Z" fill="white"/>
<rect x="43" y="728" width="343" height="62" rx="20" fill="#F1F1F1"/>
<path d="M143.42 758.128H145.832V756.148H143.42V749.776H141.044V766.354H143.42V758.128ZM136.544 753.466V751.054H134.15V753.466C134.15 754.234 134.066 755.002 133.898 755.77C133.742 756.526 133.496 757.24 133.16 757.912C132.836 758.584 132.416 759.19 131.9 759.73C131.396 760.27 130.796 760.702 130.1 761.026L131.522 762.952C132.458 762.496 133.238 761.854 133.862 761.026C134.498 760.186 134.996 759.238 135.356 758.182C135.704 759.202 136.172 760.09 136.76 760.846C137.348 761.602 138.074 762.202 138.938 762.646L140.378 760.774C139.718 760.45 139.142 760.03 138.65 759.514C138.17 758.986 137.774 758.398 137.462 757.75C137.15 757.102 136.916 756.412 136.76 755.68C136.616 754.948 136.544 754.21 136.544 753.466ZM160.735 766.39V749.758H158.359V766.39H160.735ZM151.825 750.928C151.201 750.928 150.619 751.066 150.079 751.342C149.551 751.618 149.095 752.014 148.711 752.53C148.327 753.034 148.021 753.652 147.793 754.384C147.577 755.104 147.469 755.92 147.469 756.832C147.469 757.744 147.577 758.566 147.793 759.298C148.021 760.03 148.327 760.654 148.711 761.17C149.095 761.686 149.551 762.082 150.079 762.358C150.619 762.634 151.201 762.772 151.825 762.772C152.449 762.772 153.025 762.634 153.553 762.358C154.093 762.082 154.555 761.686 154.939 761.17C155.323 760.654 155.623 760.03 155.839 759.298C156.067 758.566 156.181 757.744 156.181 756.832C156.181 755.92 156.067 755.104 155.839 754.384C155.623 753.652 155.323 753.034 154.939 752.53C154.555 752.014 154.093 751.618 153.553 751.342C153.025 751.066 152.449 750.928 151.825 750.928ZM151.825 753.07C152.437 753.07 152.935 753.388 153.319 754.024C153.703 754.66 153.895 755.596 153.895 756.832C153.895 758.068 153.703 759.01 153.319 759.658C152.935 760.294 152.437 760.612 151.825 760.612C151.213 760.612 150.715 760.294 150.331 759.658C149.947 759.01 149.755 758.068 149.755 756.832C149.755 755.596 149.947 754.66 150.331 754.024C150.715 753.388 151.213 753.07 151.825 753.07ZM172.397 756.04H175.043V761.89H177.419V749.794H175.043V754.132H172.433C172.325 753.628 172.139 753.172 171.875 752.764C171.623 752.356 171.305 752.008 170.921 751.72C170.549 751.42 170.123 751.192 169.643 751.036C169.175 750.868 168.671 750.784 168.131 750.784C167.519 750.784 166.949 750.892 166.421 751.108C165.893 751.312 165.431 751.606 165.035 751.99C164.639 752.362 164.327 752.812 164.099 753.34C163.883 753.856 163.775 754.42 163.775 755.032C163.775 755.644 163.883 756.208 164.099 756.724C164.327 757.24 164.639 757.69 165.035 758.074C165.431 758.446 165.893 758.74 166.421 758.956C166.949 759.16 167.519 759.262 168.131 759.262C168.659 759.262 169.157 759.184 169.625 759.028C170.105 758.872 170.531 758.656 170.903 758.38C171.275 758.092 171.587 757.75 171.839 757.354C172.103 756.958 172.289 756.52 172.397 756.04ZM166.043 755.032C166.043 754.348 166.235 753.814 166.619 753.43C167.015 753.034 167.519 752.836 168.131 752.836C168.743 752.836 169.247 753.034 169.643 753.43C170.051 753.814 170.255 754.348 170.255 755.032C170.255 755.716 170.051 756.25 169.643 756.634C169.247 757.006 168.743 757.192 168.131 757.192C167.519 757.192 167.015 757.006 166.619 756.634C166.235 756.25 166.043 755.716 166.043 755.032ZM177.797 766.066V764.176H168.869V760.72H166.493V766.066H177.797ZM193.6 759.568L194.608 757.588C193.672 757.432 192.844 757.162 192.124 756.778C191.404 756.394 190.798 755.944 190.306 755.428C189.814 754.912 189.442 754.354 189.19 753.754C188.938 753.142 188.812 752.536 188.812 751.936V750.748H186.274V751.936C186.274 752.524 186.148 753.124 185.896 753.736C185.644 754.336 185.272 754.894 184.78 755.41C184.288 755.926 183.682 756.382 182.962 756.778C182.242 757.162 181.414 757.432 180.478 757.588L181.486 759.568C182.938 759.292 184.174 758.776 185.194 758.02C186.214 757.252 186.994 756.34 187.534 755.284C188.074 756.34 188.854 757.246 189.874 758.002C190.906 758.758 192.148 759.28 193.6 759.568ZM195.13 764.338V762.412H180.118V764.338H195.13ZM210.914 766.336V749.758H208.664V766.336H210.914ZM207.44 750.082H205.226V755.824H202.346V757.75H205.226V765.616H207.44V750.082ZM199.502 760.72V753.538H203.48V751.648H197.162V762.664H198.296C198.908 762.664 199.472 762.658 199.988 762.646C200.504 762.634 200.996 762.616 201.464 762.592C201.944 762.556 202.406 762.514 202.85 762.466C203.294 762.406 203.75 762.328 204.218 762.232L204.02 760.288C203.288 760.432 202.568 760.534 201.86 760.594C201.152 760.654 200.366 760.696 199.502 760.72ZM226.969 766.39V749.758H224.593V766.39H226.969ZM218.059 750.928C217.435 750.928 216.853 751.066 216.313 751.342C215.785 751.618 215.329 752.014 214.945 752.53C214.561 753.034 214.255 753.652 214.027 754.384C213.811 755.104 213.703 755.92 213.703 756.832C213.703 757.744 213.811 758.566 214.027 759.298C214.255 760.03 214.561 760.654 214.945 761.17C215.329 761.686 215.785 762.082 216.313 762.358C216.853 762.634 217.435 762.772 218.059 762.772C218.683 762.772 219.259 762.634 219.787 762.358C220.327 762.082 220.789 761.686 221.173 761.17C221.557 760.654 221.857 760.03 222.073 759.298C222.301 758.566 222.415 757.744 222.415 756.832C222.415 755.92 222.301 755.104 222.073 754.384C221.857 753.652 221.557 753.034 221.173 752.53C220.789 752.014 220.327 751.618 219.787 751.342C219.259 751.066 218.683 750.928 218.059 750.928ZM218.059 753.07C218.671 753.07 219.169 753.388 219.553 754.024C219.937 754.66 220.129 755.596 220.129 756.832C220.129 758.068 219.937 759.01 219.553 759.658C219.169 760.294 218.671 760.612 218.059 760.612C217.447 760.612 216.949 760.294 216.565 759.658C216.181 759.01 215.989 758.068 215.989 756.832C215.989 755.596 216.181 754.66 216.565 754.024C216.949 753.388 217.447 753.07 218.059 753.07ZM246.85 757.93H249.262V755.95H246.85V749.794H244.474V766.354H246.85V757.93ZM242.422 751.09H240.064V755.104H236.734V751.09H234.376V762.52H242.422V751.09ZM236.734 756.958H240.064V760.63H236.734V756.958ZM265.442 764.536V762.592H259.106V760.126H264.128V758.218H254.516V756.364H263.75V750.838H252.14V752.728H261.41V754.51H252.158V760.126H256.73V762.592H250.43V764.536H265.442ZM279.967 758.056H282.289V756.094H279.967V749.758H277.591V766.318H279.967V758.056ZM275.557 751.468H267.745V753.394H273.163C272.947 755.242 272.317 756.838 271.273 758.182C270.241 759.514 268.759 760.678 266.827 761.674L268.159 763.492C269.539 762.796 270.697 762.01 271.633 761.134C272.581 760.258 273.343 759.316 273.919 758.308C274.507 757.288 274.927 756.208 275.179 755.068C275.431 753.916 275.557 752.716 275.557 751.468ZM297.353 766.336V749.758H294.959V766.336H297.353ZM292.421 751.486H284.465V753.376H289.991C289.907 754.288 289.721 755.14 289.433 755.932C289.157 756.724 288.761 757.462 288.245 758.146C287.729 758.83 287.087 759.466 286.319 760.054C285.551 760.63 284.639 761.17 283.583 761.674L284.825 763.546C286.301 762.838 287.525 762.052 288.497 761.188C289.469 760.312 290.243 759.37 290.819 758.362C291.407 757.342 291.821 756.256 292.061 755.104C292.301 753.952 292.421 752.746 292.421 751.486Z" fill="#505050"/>
</g>
<defs>
<filter id="filter0_f_10_365" x="-60" y="-102" width="560" height="1084" filterUnits="userSpaceOnUse" color-interpolation-filters="sRGB">
<feFlood flood-opacity="0" result="BackgroundImageFix"/>
<feBlend mode="normal" in="SourceGraphic" in2="BackgroundImageFix" result="shape"/>
<feGaussianBlur stdDeviation="5" result="effect1_foregroundBlur_10_365"/>
</filter>
<filter id="filter1_d_10_365" x="23" y="793" width="383" height="102" filterUnits="userSpaceOnUse" color-interpolation-filters="sRGB">
<feFlood flood-opacity="0" result="BackgroundImageFix"/>
<feColorMatrix in="SourceAlpha" type="matrix" values="0 0 0 0 0 0 0 0 0 0 0 0 0 0 0 0 0 0 127 0" result="hardAlpha"/>
<feOffset/>
<feGaussianBlur stdDeviation="10"/>
<feComposite in2="hardAlpha" operator="out"/>
<feColorMatrix type="matrix" values="0 0 0 0 0.0941176 0 0 0 0 0.462745 0 0 0 0 0.984314 0 0 0 0.25 0"/>
<feBlend mode="normal" in2="BackgroundImageFix" result="effect1_dropShadow_10_365"/>
<feBlend mode="normal" in="SourceGraphic" in2="effect1_dropShadow_10_365" result="shape"/>
</filter>
<clipPath id="clip0_10_365">
<rect width="428" height="926" fill="white"/>
</clipPath>
</defs>
</svg>
