<svg width="80" height="80" viewBox="0 0 80 80" fill="none" xmlns="http://www.w3.org/2000/svg">
<g clip-path="url(#clip0_17_84)">
<path d="M80 38.9633C80 33.6633 73.3633 28.64 63.1867 25.5266C65.5367 15.1566 64.4933 6.90331 59.8933 4.25998C58.7787 3.63571 57.5172 3.32149 56.24 3.34998V6.98331C56.99 6.98331 57.5933 7.13331 58.1 7.40998C60.3167 8.68331 61.28 13.5233 60.53 19.7533C60.35 21.2866 60.0567 22.9 59.6967 24.5466C56.2888 23.7254 52.83 23.1319 49.3433 22.77C47.2662 19.9043 45 17.1804 42.56 14.6166C47.8767 9.67665 52.8667 6.96998 56.26 6.96998V3.33331C51.7733 3.33331 45.9033 6.52998 39.9667 12.0733C34.0333 6.56665 28.16 3.39998 23.6767 3.39998V7.03331C27.0533 7.03331 32.06 9.72665 37.3767 14.6333C35.0933 17.0333 32.81 19.7533 30.64 22.77C27.1461 23.1279 23.6812 23.7271 20.27 24.5633C19.9095 23.0026 19.6258 21.4252 19.42 19.8366C18.6533 13.6033 19.6 8.76331 21.8033 7.47665C22.29 7.18331 22.9267 7.04998 23.6767 7.04998V3.41665C22.31 3.41665 21.0667 3.70998 19.9933 4.32665C15.41 6.96998 14.3833 15.2033 16.7467 25.5433C6.60333 28.6766 0 33.68 0 38.9633C0 44.2633 6.63667 49.2866 16.8133 52.3966C14.4633 62.77 15.5067 71.0233 20.1067 73.6633C21.1667 74.2833 22.4067 74.5766 23.7733 74.5766C28.26 74.5766 34.13 71.38 40.0667 65.8366C46 71.3466 51.87 74.51 56.3567 74.51C57.6437 74.5372 58.9148 74.222 60.04 73.5966C64.6233 70.9566 65.65 62.7233 63.2867 52.3833C73.3967 49.27 80 44.2466 80 38.9633ZM58.7667 28.0866C58.1333 30.2662 57.3992 32.4151 56.5667 34.5266C55.2039 31.8758 53.7075 29.2959 52.0833 26.7966C54.4 27.14 56.6333 27.5633 58.77 28.0866H58.7667ZM51.3 45.4533C50.0791 47.5849 48.7679 49.6634 47.37 51.6833C42.4775 52.1145 37.5568 52.1201 32.6633 51.7C29.8565 47.6906 27.4018 43.4459 25.3267 39.0133C27.3986 34.5703 29.8429 30.3107 32.6333 26.28C37.5246 25.8479 42.4442 25.8412 47.3367 26.26C48.69 28.2 50.0133 30.2733 51.2833 32.46C52.5233 34.5933 53.65 36.76 54.6767 38.9466C53.6386 41.1598 52.5121 43.3305 51.3 45.4533V45.4533ZM56.5667 43.3333C57.4467 45.5166 58.2 47.7033 58.8167 49.8233C56.6833 50.3466 54.43 50.7866 52.1 51.1266C53.7175 48.6047 55.2082 46.0037 56.5667 43.3333V43.3333ZM40.0333 60.7333C38.5167 59.1666 37 57.4233 35.5 55.5133C36.9667 55.58 38.4667 55.63 39.9833 55.63C41.5167 55.63 43.0333 55.5966 44.5167 55.5133C43.05 57.4233 41.5333 59.1666 40.0333 60.7333ZM27.9 51.1266C25.6525 50.801 23.4212 50.3716 21.2133 49.84C21.8167 47.7366 22.5667 45.5666 23.4133 43.4C24.0833 44.7 24.7867 46.0066 25.5533 47.3133C26.32 48.6166 27.1 49.89 27.9 51.1266ZM39.95 17.1933C41.4667 18.76 42.9833 20.5033 44.4833 22.4133C43.0167 22.3466 41.5167 22.2966 40 22.2966C38.4667 22.2966 36.95 22.33 35.4667 22.4133C36.9333 20.5033 38.45 18.76 39.95 17.1933ZM27.8833 26.8C26.2662 29.3164 24.7755 31.9119 23.4167 34.5766C22.5607 32.4515 21.8098 30.2856 21.1667 28.0866C23.3 27.58 25.5533 27.14 27.8833 26.8ZM13.1267 47.2133C7.35333 44.7533 3.62 41.5233 3.62 38.9633C3.62 36.4033 7.35333 33.1566 13.1267 30.7133C14.5267 30.11 16.06 29.57 17.6433 29.0666C18.5733 32.26 19.7967 35.5866 21.31 38.9966C19.8812 42.2039 18.6729 45.5049 17.6933 48.8766C16.1448 48.3972 14.6208 47.8421 13.1267 47.2133V47.2133ZM21.9 70.5133C19.6833 69.2466 18.72 64.4 19.47 58.1733C19.65 56.64 19.9433 55.0233 20.3033 53.3766C23.4967 54.16 26.9867 54.7633 30.6567 55.1566C32.7339 58.0223 35.0001 60.7461 37.44 63.31C32.1233 68.25 27.1333 70.9566 23.74 70.9566C23.0998 70.9636 22.4678 70.8125 21.9 70.5166V70.5133ZM60.58 58.09C61.3467 64.32 60.4 69.1633 58.1967 70.45C57.71 70.7433 57.0733 70.8733 56.3233 70.8733C52.9467 70.8733 47.94 68.1833 42.6233 63.2733C45.0531 60.7202 47.304 58.0026 49.36 55.14C52.8539 54.7821 56.3188 54.1829 59.73 53.3466C60.1067 54.9933 60.3967 56.5733 60.58 58.09V58.09ZM66.8567 47.2133C65.4567 47.8166 63.9233 48.3566 62.34 48.86C61.3432 45.471 60.1182 42.1534 58.6733 38.93C60.1733 35.54 61.3767 32.23 62.29 29.05C63.8434 29.531 65.3729 30.0861 66.8733 30.7133C72.6467 33.1733 76.38 36.4033 76.38 38.9633C76.3633 41.5233 72.63 44.77 66.8567 47.2133V47.2133Z" fill="url(#paint0_linear_17_84)"/>
<path d="M39.9834 46.4167C41.9601 46.4167 43.8559 45.6314 45.2537 44.2336C46.6514 42.8359 47.4367 40.9401 47.4367 38.9633C47.4367 36.9866 46.6514 35.0908 45.2537 33.693C43.8559 32.2953 41.9601 31.51 39.9834 31.51C38.0066 31.51 36.1108 32.2953 34.7131 33.693C33.3153 35.0908 32.53 36.9866 32.53 38.9633C32.53 40.9401 33.3153 42.8359 34.7131 44.2336C36.1108 45.6314 38.0066 46.4167 39.9834 46.4167V46.4167Z" fill="url(#paint1_linear_17_84)"/>
</g>
<defs>
<linearGradient id="paint0_linear_17_84" x1="5.5" y1="8" x2="73" y2="73" gradientUnits="userSpaceOnUse">
<stop stop-color="#29E89B"/>
<stop offset="1" stop-color="#6874FB"/>
</linearGradient>
<linearGradient id="paint1_linear_17_84" x1="33.5549" y1="32.4864" x2="47.5231" y2="44.465" gradientUnits="userSpaceOnUse">
<stop stop-color="#29E89B"/>
<stop offset="1" stop-color="#6874FB"/>
</linearGradient>
<clipPath id="clip0_17_84">
<rect width="80" height="80" fill="white"/>
</clipPath>
</defs>
</svg>
