<svg width="80" height="90" viewBox="0 0 80 90" fill="none" xmlns="http://www.w3.org/2000/svg">
<path fill-rule="evenodd" clip-rule="evenodd" d="M38.2561 0.200716C35.5755 1.07132 33.8561 3.66712 34.0298 6.58159L34.0882 7.56399L22.1762 14.5614L10.2642 21.559L9.82303 21.1726C9.10072 20.54 8.51854 20.2349 7.4334 19.9201C4.71941 19.1329 1.73347 20.5279 0.496039 23.1608C-0.131678 24.4967 -0.168914 26.7119 0.415038 27.9786C0.97093 29.1846 2.25089 30.4686 3.38509 30.9584L4.34634 31.3736V45.1061V58.8386L3.38509 59.2538C2.25089 59.7435 0.97093 61.0275 0.415038 62.2335C-0.169267 63.501 -0.131678 65.7154 0.496569 67.0526C2.1316 70.532 6.48185 71.5597 9.58197 69.1989L10.3772 68.5933L11.4678 69.21C12.0676 69.5493 17.4026 72.6704 23.3233 76.146L34.0882 82.4649L34.0926 83.8561C34.0984 85.7257 34.5045 86.8479 35.6136 88.0584C36.91 89.4736 38.0964 89.9988 40 90C41.2551 90.0007 41.6628 89.9248 42.4968 89.5347C43.766 88.941 44.8495 87.86 45.4446 86.5938C45.8376 85.7574 45.9128 85.3512 45.9181 84.0371L45.9241 82.4749L47.4181 81.5927C50.7775 79.6087 68.2028 69.3957 68.9094 68.9968L69.6713 68.5665L70.1448 69.0185C70.4052 69.2669 71.0947 69.6926 71.6771 69.9642C72.5628 70.3776 72.9669 70.4581 74.1486 70.4561C75.331 70.4544 75.724 70.3746 76.5598 69.9665C77.8387 69.3424 78.9335 68.2521 79.5136 67.0253C80.1318 65.7179 80.1649 63.4913 79.5851 62.2335C79.0292 61.0275 77.7492 59.7435 76.615 59.2538L75.6537 58.8386V45.1061V31.3736L76.615 30.9584C77.7492 30.4686 79.0292 29.1846 79.5851 27.9786C80.169 26.7119 80.1318 24.4967 79.504 23.1608C78.9072 21.8907 77.8219 20.8102 76.5562 20.2261C75.7503 19.8541 75.2893 19.7648 74.1477 19.7599C72.905 19.7544 72.5986 19.8217 71.5888 20.3215C70.9579 20.6338 70.3133 20.9833 70.1562 21.0981C69.9176 21.2728 67.9064 20.155 57.8913 14.2811L45.9119 7.25536L45.9045 5.84602C45.8953 4.12593 45.5097 3.16694 44.3139 1.89175C43.1785 0.68065 41.9067 0.0848698 40.2953 0.00916487C39.5184 -0.0272791 38.7307 0.0466652 38.2561 0.200716ZM57.118 17.287C62.699 20.5536 67.5125 23.3756 67.8148 23.5582C68.3567 23.8856 68.362 23.9025 68.2009 24.7869C68.1 25.3407 68.101 25.9798 68.2034 26.4591L68.3693 27.2348L56.4347 34.1776L44.5001 41.1205L43.9707 40.614C42.4008 39.112 39.6543 38.6824 37.6176 39.6201C37.0353 39.8881 36.3206 40.3333 36.0294 40.6094L35.5 41.1113L23.588 34.1782C16.1764 29.8644 11.7012 27.1603 11.7431 27.0205C11.7799 26.8971 11.8068 26.1888 11.8027 25.4469L11.7955 24.0976L23.6868 17.1282C30.2269 13.2949 35.6253 10.1586 35.6831 10.1586C35.7408 10.1586 36.0562 10.3624 36.3837 10.6117C38.4806 12.2073 41.8502 12.132 43.8053 10.4459L44.486 9.85891L45.7284 10.6035C46.4117 11.013 51.537 14.0206 57.118 17.287ZM21.1659 36.1882C27.0114 39.5668 32.3125 42.6256 32.9462 42.9855L34.0984 43.6399L34.0933 44.8131C34.0905 45.4584 34.1468 46.224 34.2184 46.5145L34.3486 47.0427L22.5711 54.0199L10.7936 60.9971L10.0304 60.2981C9.61056 59.9138 8.83637 59.4025 8.30977 59.162L7.3524 58.7247V45.1022V31.4795L8.47601 30.9445C9.09419 30.6503 9.7025 30.286 9.82797 30.1353C9.95344 29.9845 10.1645 29.9026 10.2969 29.9533C10.4294 30.004 15.3204 32.8097 21.1659 36.1882ZM70.4192 30.3119C70.7335 30.551 71.3635 30.9114 71.8191 31.1125L72.6477 31.4781V45.1013V58.7247L71.7 59.1576C71.1787 59.3957 70.4442 59.865 70.0676 60.2008L69.3829 60.8112L57.5168 53.9269C46.081 47.2924 45.6551 47.0267 45.7725 46.6026C45.8396 46.3605 45.9066 45.6152 45.9216 44.9464L45.949 43.7302L50.0776 41.3196C58.1359 36.6146 69.7367 29.8829 69.7918 29.8801C69.8225 29.8783 70.1049 30.0727 70.4192 30.3119ZM37.5783 50.3926L38.5883 50.8538V64.5797V78.3055L37.7502 78.664C37.2892 78.861 36.6592 79.2147 36.3502 79.4499C36.041 79.6851 35.7408 79.8775 35.6831 79.8775C35.6253 79.8775 30.2262 76.7409 23.6852 72.9071L11.7923 65.9366L11.8225 64.8904L11.8525 63.8443L18.9997 59.5988C22.9306 57.2638 28.3704 54.0271 31.0881 52.4063C35.3309 49.8758 36.0675 49.4926 36.2989 49.6952C36.4471 49.825 37.0229 50.1389 37.5783 50.3926ZM56.2515 56.6069L68.1476 63.5302L68.1683 64.741L68.1891 65.9517L56.3154 72.9146C49.7848 76.7442 44.4032 79.8775 44.3563 79.8775C44.3094 79.8775 43.8567 79.5995 43.3504 79.2596C42.8443 78.9198 42.2407 78.5942 42.0092 78.5363L41.5883 78.4309L41.588 68.7229C41.5876 63.3834 41.5355 57.1826 41.4722 54.9435L41.3568 50.8723L42.4405 50.3871C43.0366 50.1202 43.6139 49.7943 43.7231 49.663C43.8325 49.5315 44.0194 49.4823 44.1387 49.5538C44.2578 49.6251 49.7086 52.7991 56.2515 56.6069Z" fill="url(#paint0_linear_24_34)"/>
<defs>
<linearGradient id="paint0_linear_24_34" x1="0" y1="0" x2="79.505" y2="90.4352" gradientUnits="userSpaceOnUse">
<stop stop-color="#6874FB"/>
<stop offset="1" stop-color="#29E89B"/>
</linearGradient>
</defs>
</svg>
